<?xml version="1.0" encoding="UTF-8"?>
<svg version="1.1" xmlns="http://www.w3.org/2000/svg" width="14" height="20">
<path d="M0 0 C1.65 0 3.3 0 5 0 C5.33 2.31 5.66 4.62 6 7 C6.969375 7.144375 7.93875 7.28875 8.9375 7.4375 C12 8 12 8 13 9 C13.07226502 10.85287502 13.0838122 12.70833878 13.0625 14.5625 C13.05347656 15.57441406 13.04445313 16.58632813 13.03515625 17.62890625 C13.02355469 18.41136719 13.01195312 19.19382812 13 20 C11.35 20 9.7 20 8 20 C8 17.36 8 14.72 8 12 C7.01 12 6.02 12 5 12 C5 14.64 5 17.28 5 20 C3.35 20 1.7 20 0 20 C0 13.4 0 6.8 0 0 Z " fill="#FEFEFF" transform="translate(0,0)"/>
</svg>
